<?xml version="1.0" standalone="no"?>
<!DOCTYPE svg PUBLIC "-//W3C//DTD SVG 20010904//EN"
 "http://www.w3.org/TR/2001/REC-SVG-20010904/DTD/svg10.dtd">
<svg version="1.0" xmlns="http://www.w3.org/2000/svg"
 width="1024.000000pt" height="1024.000000pt" viewBox="0 0 1024.000000 1024.000000"
 preserveAspectRatio="xMidYMid meet">

<g transform="translate(0.000000,1024.000000) scale(0.100000,-0.100000)"
fill="#DFA305" stroke="none">
<path d="M5375 9478 c24 -56 25 -57 72 -63 26 -3 67 -9 90 -13 l42 -7 -68 -57
-68 -58 22 -85 c12 -47 19 -85 16 -85 -4 0 -37 18 -75 40 -37 22 -74 40 -80
40 -7 0 -44 -20 -84 -44 -64 -40 -72 -43 -67 -23 26 113 35 153 35 158 0 3
-30 30 -66 59 -76 62 -75 63 46 75 l66 6 34 86 c39 96 29 100 85 -29z m-1380
22 c32 -79 45 -89 118 -91 23 -1 54 -4 69 -8 27 -6 26 -7 -37 -59 -36 -29 -65
-61 -65 -70 0 -9 9 -50 19 -89 10 -40 16 -73 14 -73 -3 0 -35 18 -73 40 -38
22 -74 40 -81 40 -6 0 -41 -18 -76 -41 -36 -22 -67 -38 -69 -36 -3 3 4 42 16
87 12 45 20 84 18 85 -2 2 -34 28 -71 58 l-68 56 48 5 c141 18 132 12 167 98
17 42 34 75 37 73 3 -2 18 -36 34 -75z m691 3 c36 -87 37 -87 149 -98 l69 -7
-67 -62 -67 -61 20 -79 c11 -44 18 -81 16 -83 -2 -2 -38 16 -79 41 l-76 44
-71 -45 c-40 -24 -74 -42 -76 -40 -3 2 4 42 15 88 11 46 17 87 13 90 -4 3 -35
29 -69 57 l-63 51 48 6 c143 18 131 11 166 97 17 43 33 78 36 78 3 0 19 -35
36 -77z m1364 -5 l32 -77 47 -6 c25 -3 66 -9 89 -13 l44 -7 -66 -54 c-36 -30
-66 -62 -66 -70 0 -9 9 -49 19 -88 11 -40 17 -73 14 -73 -4 0 -37 18 -75 40
-39 22 -74 40 -79 40 -5 0 -40 -20 -79 -45 -38 -25 -70 -42 -70 -37 0 4 9 45
20 92 10 46 18 85 17 85 -1 1 -32 27 -70 58 l-67 56 32 5 c18 3 59 8 91 11 65
7 58 -1 111 129 9 22 18 37 20 35 2 -2 18 -39 36 -81z m667 -3 c33 -77 32 -77
157 -90 l59 -7 -48 -41 c-27 -23 -58 -49 -69 -58 -19 -16 -19 -16 2 -100 11
-46 19 -85 17 -87 -2 -2 -35 15 -73 37 -39 23 -75 41 -81 41 -7 0 -41 -19 -77
-41 -36 -23 -67 -39 -70 -37 -2 3 4 43 15 88 l19 83 -21 19 c-12 10 -44 35
-70 55 -52 41 -48 51 23 52 19 1 52 4 72 7 35 6 38 10 69 86 17 44 35 76 39
71 5 -4 21 -39 37 -78z m683 5 l33 -79 46 -6 c25 -3 67 -9 93 -13 l47 -7 -69
-58 -68 -57 22 -85 c13 -47 20 -85 17 -85 -3 0 -39 20 -80 44 l-75 43 -75 -48
c-41 -27 -76 -47 -77 -46 -1 1 6 36 17 77 10 41 19 82 19 92 0 9 -29 40 -66
69 -70 58 -69 67 6 68 91 3 107 10 126 60 28 74 44 111 48 111 2 0 18 -36 36
-80z m-3860 -509 l32 -80 56 -6 c32 -3 72 -9 90 -13 l34 -7 -65 -53 -65 -52
17 -68 c10 -37 21 -77 25 -89 6 -20 -1 -18 -72 22 -44 25 -83 45 -87 45 -3 0
-38 -20 -76 -45 -38 -24 -69 -41 -69 -37 0 4 7 44 16 90 l17 83 -39 32 c-21
18 -52 44 -69 59 l-30 27 41 1 c23 0 63 3 89 7 51 7 48 3 99 126 8 20 17 37
19 37 3 0 19 -36 37 -79z m-358 -562 c6 -4 48 -10 94 -14 l83 -7 -67 -56 c-37
-31 -68 -56 -69 -57 -1 0 7 -34 17 -75 11 -41 20 -80 20 -87 0 -10 -105 42
-137 68 -8 7 -34 -5 -83 -36 -40 -25 -74 -44 -77 -42 -2 3 4 42 15 86 l19 82
-69 57 -70 57 69 8 c113 13 106 9 142 97 l34 81 34 -77 c18 -43 38 -81 45 -85z
m-428 -480 l24 -56 86 -8 c47 -4 86 -10 86 -13 0 -4 -20 -22 -43 -40 -23 -17
-52 -40 -64 -51 l-22 -18 19 -74 c11 -41 20 -80 20 -86 0 -7 -34 7 -76 32
l-76 45 -74 -45 c-41 -25 -74 -39 -74 -32 0 6 7 45 17 86 l17 73 -34 32 c-19
17 -50 43 -69 57 l-34 27 82 7 c47 4 88 13 95 21 8 7 27 46 42 85 l28 71 13
-28 c7 -16 23 -54 37 -85z m2981 -293 c82 -39 142 -96 216 -206 29 -44 59 -82
66 -85 8 -2 48 9 91 26 180 72 421 112 451 75 24 -29 3 -63 -109 -180 l-109
-114 6 -73 c3 -42 14 -89 25 -109 25 -48 23 -83 -8 -119 -41 -49 -94 -38 -114
25 -10 30 -9 43 5 82 10 26 24 54 32 63 17 20 31 129 16 129 -23 0 -43 -31
-68 -110 -15 -47 -67 -173 -115 -280 -149 -333 -240 -571 -240 -624 0 -14 9
-5 28 29 81 145 180 271 230 292 35 14 60 12 118 -13 7 -3 50 58 97 138 47 79
109 174 137 213 54 75 58 86 35 105 -22 18 -19 33 15 65 36 35 38 45 5 45 -15
0 -31 10 -41 26 -16 24 -16 27 3 52 13 17 34 30 59 34 l39 8 -3 50 c-3 42 0
53 22 75 14 14 30 25 37 25 6 0 27 -17 47 -37 l34 -37 20 27 c39 53 86 26 76
-44 -3 -19 4 -25 41 -36 25 -7 48 -16 53 -21 16 -16 -30 -70 -76 -87 -43 -17
-45 -18 -31 -38 8 -12 15 -31 15 -43 0 -12 5 -24 11 -26 7 -2 9 -13 5 -26 -9
-26 -39 -28 -76 -7 -32 18 -44 19 -37 1 12 -30 -8 -70 -38 -78 -44 -11 -68 15
-63 69 4 49 -12 53 -27 7 -5 -17 -24 -48 -42 -70 -43 -54 -186 -284 -219 -350
-14 -30 -24 -61 -20 -69 12 -33 44 -12 126 81 124 141 264 261 445 382 145 97
157 107 130 110 -31 4 -75 37 -75 57 0 6 15 22 33 36 25 19 44 24 90 24 l57 0
0 33 c0 46 70 123 97 106 10 -6 23 -29 29 -50 8 -25 16 -38 25 -35 116 34 145
31 142 -14 -1 -15 -12 -38 -23 -50 l-21 -23 28 -21 c49 -37 53 -41 53 -65 0
-39 -34 -59 -114 -65 -5 -1 -6 -15 -2 -32 7 -37 -8 -69 -34 -69 -10 0 -32 11
-48 25 -34 29 -42 31 -42 11 0 -24 -41 -66 -65 -66 -25 0 -35 17 -35 61 0 34
0 35 -42 9 -44 -26 -58 -25 -58 5 0 14 -4 25 -8 25 -14 0 -175 -103 -244 -156
-129 -100 -348 -327 -348 -361 0 -6 13 -16 30 -21 27 -10 42 -5 153 53 67 35
155 78 195 94 79 33 259 81 302 81 15 0 33 7 40 16 11 13 10 16 -8 21 -25 6
-28 21 -9 47 10 13 32 21 76 25 60 6 63 8 84 46 27 48 56 53 75 13 12 -26 18
-28 71 -28 43 0 65 -5 82 -19 22 -17 22 -20 7 -42 -8 -14 -32 -33 -51 -44
l-36 -19 36 -40 c34 -37 35 -40 18 -53 -11 -7 -34 -14 -52 -14 -18 -1 -38 -2
-45 -3 -7 0 -16 -21 -21 -46 -11 -58 -27 -76 -56 -61 -11 7 -28 25 -36 42
l-16 30 -40 -36 c-53 -47 -75 -44 -71 13 2 41 1 42 -28 42 -26 0 -31 5 -36 29
l-6 29 -62 -14 c-103 -23 -205 -63 -336 -130 -186 -95 -186 -96 -97 -140 64
-32 97 -62 97 -87 0 -11 -33 -54 -73 -96 -97 -102 -147 -159 -147 -170 0 -5
14 -14 30 -21 55 -23 113 -94 172 -212 45 -88 56 -119 52 -141 -8 -34 -28 -44
-50 -26 -9 7 -38 56 -64 109 -59 118 -88 154 -151 186 -105 53 -217 66 -322
39 -66 -17 -115 -46 -212 -125 -159 -130 -247 -256 -336 -482 -29 -76 -37 -88
-58 -88 -22 0 -23 3 -18 38 3 20 9 52 13 71 l7 33 -54 -7 c-144 -18 -311 -50
-474 -91 -149 -38 -183 -50 -198 -70 -10 -13 -23 -24 -28 -24 -5 0 -34 51 -65
113 -75 149 -124 219 -187 266 -85 65 -161 85 -266 70 -142 -20 -268 -109
-305 -214 -31 -87 -35 -95 -51 -95 -9 0 -18 7 -22 16 -10 27 34 147 72 196
l36 45 -79 159 c-58 120 -96 182 -151 249 -94 116 -113 154 -118 235 -5 81 10
114 53 118 22 2 42 -6 74 -32 53 -43 64 -44 86 -11 12 18 25 25 49 25 26 0 50
-16 131 -87 149 -130 226 -177 333 -202 203 -48 441 -68 441 -37 0 25 -41 149
-117 349 -132 352 -243 577 -283 577 -28 0 -26 -34 5 -74 48 -63 22 -115 -51
-101 -31 5 -34 4 -34 -17 1 -53 41 -69 70 -27 25 34 40 30 40 -12 0 -55 -66
-88 -119 -59 -45 24 -51 113 -13 168 11 15 23 48 27 73 l7 46 -55 7 c-60 8
-92 30 -66 47 45 29 573 181 677 196 55 8 62 19 101 163 44 164 76 234 120
269 45 36 220 116 321 147 49 15 101 23 150 23 66 1 84 -3 145 -33z m-3232
-331 l91 -7 -44 -36 c-24 -21 -55 -46 -69 -58 l-24 -21 21 -84 c11 -46 20 -84
19 -86 -2 -1 -37 18 -79 43 l-76 45 -70 -46 c-39 -25 -72 -45 -75 -45 -2 0 4
35 14 78 10 42 19 82 19 89 0 6 -29 36 -65 65 -72 59 -69 65 25 67 72 2 84 8
104 59 11 26 26 63 34 82 l14 35 35 -86 34 -87 92 -7z m-383 -571 c0 -2 41 -6
92 -10 l92 -7 -39 -31 c-22 -17 -53 -43 -69 -57 l-29 -26 21 -84 c11 -46 20
-84 19 -86 -1 -1 -35 19 -75 43 l-74 45 -41 -24 c-23 -13 -58 -34 -79 -46
l-36 -22 19 73 c10 40 19 81 19 90 0 9 -27 38 -59 65 -33 26 -60 51 -60 54 -1
3 36 10 81 15 l82 9 28 65 c15 36 29 74 32 85 5 15 15 -2 41 -65 19 -46 35
-85 35 -86z m-249 -494 c17 -41 36 -78 42 -82 6 -3 46 -9 91 -13 l80 -7 -25
-22 c-13 -11 -44 -37 -67 -56 l-42 -35 21 -79 c11 -43 19 -82 17 -86 -2 -5
-36 11 -76 36 -40 24 -74 44 -77 44 -2 0 -36 -20 -74 -45 -38 -25 -71 -45 -74
-45 -2 0 4 33 14 73 10 39 18 81 18 92 0 12 -24 40 -62 70 l-61 50 39 7 c22 4
61 10 87 13 l47 6 32 79 c18 44 34 78 35 77 2 -2 17 -36 35 -77z m4444 -544
c63 -29 115 -86 143 -156 12 -30 39 -122 61 -205 59 -221 63 -233 119 -318 28
-43 54 -94 58 -113 13 -70 -21 -150 -75 -178 -54 -29 -215 -64 -321 -70 -58
-4 -149 -12 -203 -18 -75 -9 -118 -8 -185 1 -119 17 -122 18 -138 57 -20 47
-18 92 11 229 14 66 30 181 35 255 5 74 17 162 26 194 23 88 86 205 136 254
91 87 230 116 333 68z m-4502 -136 c11 -22 22 -26 99 -35 l87 -10 -65 -54
c-52 -43 -64 -58 -60 -75 42 -167 44 -161 -49 -101 -31 19 -61 35 -67 35 -6 0
-40 -19 -75 -41 -35 -23 -66 -40 -68 -37 -5 5 19 120 30 150 4 9 -20 35 -61
68 l-67 55 39 7 c21 3 60 9 86 13 45 6 46 7 69 63 41 104 39 103 65 42 13 -30
29 -66 37 -80z m2592 -147 c127 -43 225 -230 226 -433 1 -99 -19 -162 -75
-239 -83 -113 -227 -184 -372 -184 -59 0 -80 5 -124 29 -60 33 -115 98 -131
158 -28 99 52 363 158 523 95 144 193 189 318 146z m-2558 -458 l30 -70 88
-10 89 -10 -64 -54 c-36 -30 -64 -59 -64 -65 1 -6 9 -42 18 -80 9 -38 15 -71
12 -73 -2 -2 -34 14 -70 36 -37 23 -71 41 -77 41 -6 0 -42 -20 -80 -45 -38
-24 -69 -42 -69 -39 0 3 9 42 20 86 l21 80 -46 40 c-26 23 -56 49 -68 58 -21
17 -19 18 65 25 l87 7 32 79 c18 44 36 76 40 72 4 -5 20 -39 36 -78z m179
-639 c30 -80 36 -85 123 -87 20 -1 47 -4 59 -8 22 -6 19 -10 -41 -59 l-65 -52
20 -76 c10 -42 18 -80 16 -85 -2 -5 -34 9 -72 31 -37 22 -72 40 -77 40 -5 0
-38 -18 -73 -40 -35 -22 -65 -40 -68 -40 -3 0 4 39 14 86 l20 86 -21 15 c-46
32 -109 91 -104 97 4 3 29 7 57 7 100 3 105 6 140 91 17 42 34 74 37 72 3 -2
19 -37 35 -78z m1478 -146 c53 -12 86 -47 93 -99 l6 -42 -49 3 c-40 2 -49 7
-52 23 -7 36 -43 65 -81 65 -80 0 -121 -53 -121 -153 0 -69 18 -116 55 -145
51 -40 108 -23 139 42 15 31 20 34 66 38 45 3 50 1 50 -17 0 -37 -44 -99 -83
-118 -94 -46 -241 -27 -295 39 -76 91 -68 239 16 318 51 47 164 68 256 46z
m506 -30 c0 -28 -3 -30 -35 -30 l-35 0 0 -133 c0 -165 6 -177 85 -177 82 0 85
6 85 169 l0 138 -30 -2 c-28 -2 -30 1 -30 32 l0 33 125 0 125 0 0 -33 c0 -32
-2 -33 -34 -31 l-33 3 -8 -139 c-8 -154 -15 -174 -78 -207 -42 -22 -208 -24
-251 -3 -61 31 -71 57 -74 211 l-4 139 -39 0 c-37 0 -39 2 -39 30 l0 30 135 0
135 0 0 -30z m800 -3 c0 -26 -4 -33 -21 -34 -12 -1 -23 -3 -24 -5 -2 -2 18
-66 45 -143 46 -138 48 -140 79 -143 27 -3 31 -7 31 -33 l0 -29 -115 0 -115 0
0 30 c0 26 4 30 26 30 20 0 25 4 20 16 -3 9 -6 22 -6 30 0 11 -17 14 -75 14
-41 0 -75 -3 -75 -7 0 -5 -3 -18 -6 -30 -6 -20 -3 -23 25 -23 28 0 31 -3 31
-30 l0 -30 -115 0 -115 0 0 30 c0 26 3 30 29 30 32 0 26 -11 91 164 47 129 48
136 15 130 -23 -4 -25 -1 -25 31 l0 35 150 0 150 0 0 -33z m627 10 c44 -23 63
-54 63 -100 0 -31 -7 -46 -34 -73 l-34 -34 31 -65 c27 -58 33 -65 59 -65 25 0
28 -4 28 -30 l0 -31 -87 3 -87 3 -31 80 c-27 70 -34 80 -58 83 -26 3 -27 2
-27 -52 0 -53 1 -56 25 -56 21 0 25 -5 25 -30 l0 -30 -120 0 -120 0 0 30 c0
28 2 30 40 30 l40 0 0 145 c0 158 4 147 -57 148 -19 0 -23 5 -23 34 l0 35 168
-4 c133 -3 173 -7 199 -21z m683 -37 l0 -60 -45 0 c-41 0 -45 2 -45 25 0 24
-3 25 -60 25 -33 0 -63 0 -67 0 -5 0 -8 -24 -8 -52 l0 -53 48 -3 c45 -3 47 -5
47 -33 0 -28 -1 -29 -50 -29 l-50 0 0 -55 0 -55 70 0 70 0 0 30 c0 29 2 30 45
30 l45 0 0 -65 0 -65 -215 0 -215 0 0 30 c0 28 2 30 40 30 l40 0 0 144 0 145
-37 3 c-35 3 -38 6 -41 36 l-3 32 215 0 216 0 0 -60z m440 25 c0 -34 -1 -35
-40 -35 l-40 0 0 -145 0 -145 40 0 c38 0 40 -2 40 -30 l0 -30 -135 0 -135 0 0
29 c0 27 3 30 38 33 l37 3 0 145 0 145 -37 -1 c-36 0 -38 1 -38 33 l0 33 135
0 135 0 0 -35z m424 -57 c24 -51 46 -102 50 -113 6 -16 13 -6 39 50 18 39 43
89 55 113 l22 42 115 0 115 0 0 -35 c0 -35 -1 -36 -37 -33 l-38 3 -3 -147 -3
-148 41 0 c38 0 40 -2 40 -30 l0 -30 -135 0 -135 0 0 30 c0 28 2 30 40 30 l40
0 0 127 c0 70 -4 123 -8 118 -5 -6 -30 -58 -56 -117 l-49 -108 -36 0 -36 0
-49 113 c-27 61 -53 116 -58 122 -4 5 -8 -50 -8 -123 l0 -132 40 0 c38 0 40
-2 40 -30 l0 -30 -130 0 -130 0 0 30 c0 28 2 30 40 30 l40 0 0 149 0 148 -37
-1 c-36 -1 -38 1 -41 32 l-3 32 116 0 116 0 43 -92z m-4733 -405 c6 -6 49 -15
96 -18 l86 -8 -44 -36 c-24 -20 -54 -45 -67 -56 l-23 -20 19 -80 c11 -44 18
-82 16 -84 -2 -2 -35 15 -73 38 -38 22 -72 41 -75 41 -3 0 -35 -18 -72 -41
-36 -22 -68 -38 -71 -36 -2 3 3 35 12 71 8 37 15 73 15 81 0 8 -29 38 -65 69
l-65 55 79 7 c43 3 83 9 89 13 5 3 24 42 42 85 l33 79 29 -74 c17 -41 34 -79
39 -86z m2538 -19 c111 -31 191 -119 227 -249 23 -85 28 -298 8 -399 -26 -135
-90 -231 -186 -282 -49 -27 -229 -32 -297 -9 -104 34 -183 137 -217 282 -23
96 -15 343 13 429 38 117 120 201 222 229 64 18 165 18 230 -1z m1040 -1 c181
-58 231 -275 95 -409 l-52 -51 55 -42 c75 -58 97 -108 91 -211 -5 -87 -23
-127 -78 -171 -62 -50 -135 -69 -263 -69 -130 0 -193 15 -255 60 -64 46 -87
98 -87 201 0 77 3 90 28 128 15 23 48 54 73 69 24 15 44 30 44 34 0 4 -18 21
-39 39 -59 47 -85 115 -78 202 10 117 73 189 196 222 68 19 209 18 270 -2z
m1012 -10 c147 -66 209 -203 209 -462 0 -243 -54 -376 -182 -447 -51 -28 -58
-29 -178 -29 -109 0 -130 3 -165 21 -92 50 -155 141 -181 263 -28 133 -13 382
29 481 38 89 112 157 202 187 60 19 209 12 266 -14z m-2969 -370 l3 -388 93
-3 92 -3 0 -84 0 -85 -307 0 -308 0 3 85 3 85 100 0 99 0 0 260 c0 143 -2 260
-5 260 -3 0 -24 -9 -47 -21 -22 -11 -65 -23 -94 -26 l-54 -6 0 96 0 95 50 11
c65 14 117 41 154 80 29 30 32 31 123 31 l93 0 2 -387z m-1176 -168 l87 -8
-44 -36 c-24 -20 -54 -45 -67 -56 l-24 -20 21 -80 c11 -44 19 -81 17 -82 -2
-2 -35 15 -73 37 -39 22 -73 40 -76 40 -4 0 -36 -18 -73 -41 -36 -22 -68 -39
-69 -37 -2 2 5 38 15 82 l18 78 -37 33 c-20 18 -49 44 -66 58 l-30 25 70 7
c97 9 101 11 118 53 9 20 23 55 33 77 l17 40 37 -82 38 -81 88 -7z m244 -424
l32 -80 91 -7 91 -7 -39 -31 c-22 -17 -53 -43 -69 -57 l-29 -26 20 -81 c11
-45 18 -82 16 -82 -3 0 -38 20 -78 44 l-72 44 -69 -44 c-38 -24 -70 -40 -72
-35 -2 5 4 36 12 69 9 33 16 68 15 78 0 11 -28 42 -62 69 l-62 50 75 8 c41 5
81 11 88 15 7 4 27 40 44 80 16 39 31 72 33 72 1 0 17 -36 35 -79z m390 -492
c30 -73 34 -77 68 -83 21 -3 53 -6 72 -6 66 -1 66 -13 1 -66 -34 -27 -61 -53
-61 -59 0 -5 9 -43 19 -82 10 -40 15 -73 12 -73 -2 0 -35 18 -72 40 -37 22
-70 40 -74 40 -4 0 -38 -20 -76 -45 -38 -24 -69 -39 -69 -32 0 6 7 39 15 72 8
33 14 68 15 77 0 9 -27 38 -59 65 -33 26 -60 51 -60 56 -1 4 14 7 32 7 17 0
55 3 83 6 l51 6 33 80 c18 43 34 77 35 76 2 -2 17 -37 35 -79z m468 -499 c29
-72 31 -75 68 -82 22 -4 60 -7 87 -7 26 -1 47 -5 47 -9 0 -5 -27 -31 -60 -57
-33 -26 -60 -54 -60 -62 0 -8 7 -43 16 -79 9 -36 14 -67 11 -71 -4 -3 -38 13
-76 36 l-70 41 -53 -33 c-29 -19 -63 -39 -74 -45 l-21 -11 18 77 c10 42 18 82
19 88 0 6 -30 35 -67 64 -37 30 -63 55 -57 56 5 1 44 6 87 9 l79 7 25 56 c14
32 29 68 34 81 5 13 11 22 13 20 3 -2 18 -38 34 -79z m495 -546 c1 -2 40 -6
85 -10 46 -4 81 -10 80 -14 -2 -4 -29 -29 -60 -54 -32 -26 -58 -54 -58 -62 0
-8 7 -44 16 -80 9 -36 14 -67 11 -70 -3 -3 -37 13 -76 36 l-70 42 -73 -45
c-40 -25 -73 -45 -74 -44 -2 1 6 38 17 82 10 44 19 83 19 86 0 3 -30 30 -67
60 l-67 54 89 10 88 10 35 82 35 83 33 -81 c18 -45 35 -83 37 -85z m418 -377
c12 -35 14 -36 78 -42 119 -11 118 -10 70 -51 -23 -19 -53 -43 -67 -54 l-25
-20 21 -82 c12 -45 19 -84 17 -86 -2 -2 -36 17 -76 41 l-73 44 -70 -43 c-39
-23 -72 -41 -74 -39 -2 2 4 40 13 84 l18 79 -39 34 c-21 18 -52 45 -68 59
l-29 26 84 7 c46 4 89 12 95 19 6 7 24 45 40 85 l28 74 22 -50 c12 -27 28 -66
35 -85z"/>
<path d="M5505 7619 c-38 -11 -134 -48 -213 -81 -157 -67 -176 -83 -206 -172
-9 -27 -16 -52 -16 -56 0 -13 340 25 412 46 72 21 351 125 362 135 13 12 -72
86 -138 119 -69 35 -103 36 -201 9z"/>
<path d="M6370 7424 c-147 -32 -278 -87 -460 -195 -113 -66 -243 -127 -355
-165 -67 -24 -80 -24 -330 -24 l-260 1 -147 -36 c-80 -19 -155 -35 -166 -35
-26 0 -199 -45 -237 -61 l-30 -13 55 -6 c89 -9 484 -3 620 9 69 6 206 23 305
37 419 59 702 142 893 260 71 45 262 216 262 235 13 12 -75 9 -150 -7z"/>
<path d="M5856 7284 c-88 -39 -290 -108 -381 -129 -40 -10 -120 -15 -242 -15
-149 0 -183 -3 -183 -14 0 -36 28 -41 229 -41 189 0 199 1 279 28 96 33 384
177 390 195 6 18 -5 15 -92 -24z"/>
<path d="M6643 7224 c-9 -24 14 -66 35 -62 12 2 16 11 14 28 -7 44 -37 66 -49
34z"/>
<path d="M6777 7205 c-15 -30 -15 -35 -2 -35 14 0 35 37 35 61 0 20 -17 7 -33
-26z"/>
<path d="M7195 7197 c-4 -14 -2 -33 3 -43 8 -15 11 -12 17 15 9 41 -11 67 -20
28z"/>
<path d="M7342 7147 c-36 -11 -38 -30 -4 -35 13 -2 25 5 32 18 15 27 12 29
-28 17z"/>
<path d="M6810 7130 c-8 -5 -31 -7 -50 -4 -28 5 -39 1 -54 -15 -11 -12 -25
-21 -33 -21 -7 0 -16 -8 -20 -17 -3 -10 -20 -33 -36 -50 -25 -26 -27 -33 -13
-33 9 0 27 11 40 25 31 33 46 32 96 -10 24 -20 45 -34 47 -31 9 8 -27 64 -53
83 l-26 19 78 18 c104 23 106 24 99 36 -8 13 -55 13 -75 0z"/>
<path d="M7224 7115 c-15 -11 -16 -15 -5 -28 8 -11 10 -21 3 -33 -14 -26 8
-83 47 -121 19 -18 36 -31 38 -29 3 2 -9 37 -26 77 -17 41 -31 77 -31 81 0 5
11 8 24 8 14 0 28 5 31 10 3 6 -1 10 -10 10 -8 0 -18 6 -21 14 -8 21 -30 26
-50 11z"/>
<path d="M6130 7075 c-25 -13 -88 -38 -140 -55 -52 -17 -99 -35 -103 -39 -5
-5 -10 -37 -11 -72 -2 -56 0 -65 22 -84 15 -13 22 -27 18 -33 -10 -16 -98 -15
-121 2 -18 13 -18 14 7 39 33 33 51 137 24 137 -13 0 -111 -20 -222 -45 -21
-5 -22 -10 -21 -147 1 -145 -6 -210 -49 -488 -28 -184 -32 -259 -15 -270 7 -4
44 -10 83 -14 76 -7 108 -19 108 -40 0 -23 -78 -268 -109 -344 -17 -40 -55
-115 -85 -167 -31 -51 -56 -98 -56 -103 0 -11 77 -25 91 -16 5 3 23 33 40 67
17 34 56 99 86 144 79 121 93 158 109 301 8 70 23 175 34 233 11 58 20 108 20
112 0 3 -46 9 -102 13 -57 4 -106 9 -110 10 -5 1 -15 2 -23 3 -8 0 -15 10 -15
21 0 21 61 263 86 341 17 53 2 47 204 82 69 13 130 26 136 30 13 8 138 276
165 354 21 61 16 64 -51 28z"/>
<path d="M6562 7083 c2 -10 10 -18 18 -18 8 0 16 8 18 18 2 12 -3 17 -18 17
-15 0 -20 -5 -18 -17z"/>
<path d="M7155 7080 c-10 -11 -16 -23 -12 -26 7 -7 57 25 57 37 0 16 -26 9
-45 -11z"/>
<path d="M7040 7080 c0 -13 48 -36 56 -27 4 3 4 13 1 22 -7 17 -57 21 -57 5z"/>
<path d="M7334 7029 c-9 -16 15 -29 53 -29 41 0 52 17 18 30 -35 13 -62 13
-71 -1z"/>
<path d="M7163 7020 c-42 -17 -22 -47 23 -36 16 4 24 13 22 23 -4 21 -17 24
-45 13z"/>
<path d="M6686 6983 c-8 -8 -8 -47 0 -67 6 -15 8 -15 20 1 18 24 18 59 0 66
-8 3 -17 3 -20 0z"/>
<path d="M6297 6964 c-10 -10 -9 -62 2 -68 13 -8 43 30 39 51 -3 18 -29 29
-41 17z"/>
<path d="M7087 6952 c-19 -21 -22 -32 -8 -32 5 0 16 11 25 25 19 29 7 34 -17
7z"/>
<path d="M7169 6948 c-4 -24 -3 -100 2 -104 21 -12 46 70 28 92 -10 12 -28 19
-30 12z"/>
<path d="M5473 6903 c-19 -4 -23 -11 -23 -44 0 -23 7 -47 15 -55 32 -32 31
-96 -1 -128 -20 -21 -73 -20 -103 0 -20 14 -23 23 -18 61 2 24 16 61 31 83 31
46 34 74 9 66 -10 -2 -101 -12 -203 -21 -102 -10 -190 -19 -197 -21 -16 -4 -5
-101 14 -131 8 -12 12 -31 8 -42 -4 -13 2 -25 20 -40 16 -12 25 -28 23 -38 -3
-15 -13 -18 -67 -16 -77 2 -89 12 -56 43 23 22 24 25 8 42 -13 15 -14 23 -5
44 7 13 12 49 12 79 l0 54 -220 -2 c-121 -1 -220 -3 -220 -3 0 -1 33 -71 74
-155 77 -162 133 -296 212 -518 47 -129 49 -133 64 -110 8 13 34 46 57 75 l42
51 -21 34 c-11 19 -36 53 -55 76 -33 41 -40 72 -17 80 6 2 43 -34 82 -79 39
-46 93 -105 121 -133 28 -27 51 -57 51 -67 0 -29 -36 -21 -79 17 l-39 36 -37
-32 c-76 -67 -112 -146 -85 -189 8 -12 20 -11 87 9 172 52 261 72 371 81 63 6
118 13 123 16 5 3 9 22 9 42 0 20 16 145 35 277 38 257 51 430 38 510 -8 51
-16 57 -60 48z"/>
<path d="M5391 6754 c-12 -28 -7 -44 14 -44 14 0 37 54 28 64 -13 13 -30 5
-42 -20z"/>
<path d="M7316 6714 c-9 -25 -7 -34 8 -34 16 0 25 19 18 38 -6 17 -19 15 -26
-4z"/>
<path d="M7387 6693 c-26 -25 36 -33 69 -8 18 13 16 14 -22 15 -22 0 -44 -3
-47 -7z"/>
<path d="M7189 6659 c16 -6 28 -6 35 1 7 7 -1 10 -24 9 -33 0 -34 -1 -11 -10z"/>
<path d="M7275 6646 c-29 -9 -41 -18 -43 -34 -2 -12 -9 -22 -16 -22 -17 0 -66
-38 -66 -51 0 -9 34 6 134 59 22 11 31 12 34 4 5 -16 33 -15 55 2 14 11 15 15
4 24 -28 23 -62 29 -102 18z"/>
<path d="M5930 6629 c-30 -5 -89 -14 -130 -22 l-74 -13 -24 -79 c-12 -44 -34
-118 -48 -164 -14 -45 -23 -86 -20 -89 4 -3 52 -11 108 -19 113 -14 110 -16
129 51 8 31 101 277 126 334 3 6 1 11 -3 11 -5 -1 -34 -5 -64 -10z"/>
<path d="M7380 6571 c0 -11 25 -21 52 -21 17 0 18 3 8 15 -13 16 -60 21 -60 6z"/>
<path d="M7309 6551 c-23 -19 -23 -21 -9 -48 20 -37 33 -33 43 13 10 48 -3 60
-34 35z"/>
<path d="M7228 6523 c-19 -22 -30 -53 -19 -53 4 0 18 11 31 25 16 17 20 29 14
35 -7 7 -15 5 -26 -7z"/>
<path d="M6143 6408 c-6 -7 -13 -18 -17 -25 -7 -12 154 -123 287 -197 80 -45
173 -60 196 -32 8 9 12 18 10 20 -2 2 -47 24 -100 49 -88 41 -157 82 -278 166
-46 33 -82 39 -98 19z"/>
<path d="M6022 6248 c-27 -40 -63 -101 -80 -134 -47 -94 -90 -275 -64 -274 4
1 42 62 85 138 43 75 101 175 130 221 l51 83 -23 19 c-13 10 -29 19 -37 19 -7
0 -35 -33 -62 -72z"/>
<path d="M6092 6126 c-92 -150 -165 -279 -154 -274 4 2 27 11 52 21 38 16 56
34 115 118 39 55 87 123 108 151 20 29 37 56 37 62 0 9 -62 56 -73 56 -1 0
-39 -60 -85 -134z"/>
<path d="M6258 6147 c-14 -23 -56 -82 -92 -132 -36 -49 -66 -93 -66 -97 0 -11
111 19 125 33 38 40 135 166 135 175 0 10 -62 65 -72 64 -2 0 -15 -20 -30 -43z"/>
<path d="M3716 6138 c4 -18 15 -53 25 -77 19 -43 20 -44 39 -26 31 28 25 61
-17 100 -21 19 -41 35 -45 35 -4 0 -5 -15 -2 -32z"/>
<path d="M3892 6111 c9 -93 67 -175 112 -158 40 16 1 137 -58 182 -49 38 -59
33 -54 -24z"/>
<path d="M6337 6033 c-32 -41 -57 -76 -55 -78 2 -2 26 -7 53 -10 l50 -7 60 61
c33 34 61 65 62 69 3 8 -76 42 -97 41 -8 0 -41 -34 -73 -76z"/>
<path d="M3817 5983 c-14 -13 -6 -40 17 -62 l24 -23 11 21 c19 34 -27 90 -52
64z"/>
<path d="M5265 5940 c-97 -17 -361 -95 -370 -109 -8 -14 67 -436 81 -452 11
-13 46 -17 177 -22 89 -4 178 -10 198 -13 36 -6 36 -6 89 77 29 45 70 120 92
165 38 82 102 266 114 329 5 29 3 33 -21 39 -48 12 -257 4 -360 -14z m202
-116 c10 -26 -9 -33 -105 -35 -101 -3 -135 9 -98 37 29 21 194 20 203 -2z"/>
<path d="M4115 5920 c-11 -4 -33 -22 -49 -39 -27 -28 -29 -37 -29 -103 -1 -87
26 -188 49 -188 9 0 41 8 72 17 77 23 241 23 301 0 106 -41 201 -144 277 -303
24 -50 50 -96 57 -102 11 -9 64 0 228 38 118 27 230 50 249 50 26 0 31 3 20
10 -8 5 -90 10 -181 10 -126 0 -169 3 -178 13 -6 8 -28 120 -50 251 -21 131
-41 240 -44 242 -5 6 -50 10 -189 19 -109 6 -270 37 -368 70 -77 25 -130 30
-165 15z"/>
<path d="M3908 5883 c-24 -6 -23 -18 8 -94 54 -131 107 -216 68 -108 -8 24
-18 76 -21 114 -5 65 -16 97 -32 94 -3 -1 -14 -3 -23 -6z"/>
<path d="M6150 5671 c-19 -6 -24 -13 -22 -32 11 -76 74 -385 81 -392 17 -17
41 35 80 176 23 81 41 157 41 168 0 38 -20 58 -72 74 -55 16 -69 17 -108 6z"/>
<path d="M6032 5586 c-51 -55 -110 -171 -119 -231 l-6 -45 107 -50 c91 -42
110 -48 127 -37 24 15 24 27 -5 177 -13 69 -27 149 -31 178 -4 32 -12 52 -20
52 -7 0 -31 -20 -53 -44z"/>
<path d="M6332 5448 c-17 -62 -38 -134 -46 -160 -9 -30 -11 -48 -5 -48 21 0
158 96 159 111 0 19 -57 190 -68 201 -5 5 -22 -43 -40 -104z"/>
<path d="M6368 5246 c-59 -38 -78 -56 -78 -72 0 -13 6 -26 13 -31 22 -14 230
-103 234 -99 2 1 -9 20 -23 42 -17 24 -33 70 -43 121 -9 45 -19 84 -21 86 -3
2 -40 -19 -82 -47z"/>
<path d="M5900 5229 c-1 -68 -12 -176 -27 -244 -39 -187 -40 -253 -3 -230 20
12 270 319 270 331 0 6 -7 17 -15 24 -8 7 -15 25 -15 39 0 28 -7 32 -197 108
-9 4 -13 -6 -13 -28z"/>
<path d="M6162 5198 c-7 -7 -12 -24 -12 -38 0 -48 51 -68 85 -34 18 18 13 63
-8 76 -18 12 -52 9 -65 -4z"/>
<path d="M6270 5093 c0 -5 37 -54 83 -110 45 -55 98 -121 117 -147 30 -40 39
-46 62 -41 94 16 115 95 45 167 -44 46 -307 158 -307 131z"/>
<path d="M6146 5033 c-56 -64 -236 -288 -236 -294 0 -13 113 -16 203 -6 l87
10 0 97 c0 118 -10 220 -21 220 -5 0 -20 -12 -33 -27z"/>
<path d="M6230 4928 c0 -73 -3 -144 -7 -157 l-6 -24 84 7 c82 7 159 22 159 32
0 9 -215 274 -222 274 -5 0 -8 -60 -8 -132z"/>
<path d="M4305 5229 c-4 -88 -5 -163 -1 -166 7 -7 206 164 206 178 0 19 -38
84 -62 106 -28 26 -70 43 -108 43 l-28 0 -7 -161z"/>
<path d="M4222 5347 c-43 -32 -111 -128 -112 -155 0 -20 131 -144 147 -138 9
4 13 25 13 68 0 35 3 107 7 161 3 56 2 97 -3 97 -5 0 -29 -15 -52 -33z"/>
<path d="M4425 5110 c-49 -43 -91 -83 -93 -89 -2 -5 23 -17 55 -26 32 -9 80
-23 107 -31 27 -8 54 -14 59 -14 6 0 7 28 4 68 -6 77 -26 172 -35 171 -4 0
-47 -36 -97 -79z"/>
<path d="M4066 5103 c-7 -16 -21 -52 -30 -82 l-16 -53 77 7 c90 8 123 19 123
39 0 15 -113 116 -130 116 -5 0 -16 -12 -24 -27z"/>
<path d="M4244 5015 c-7 -18 2 -45 15 -45 5 0 17 7 26 16 12 12 13 19 4 30
-15 18 -38 18 -45 -1z"/>
<path d="M4324 4966 c-6 -15 120 -206 136 -206 23 0 104 141 89 154 -6 5 -159
53 -192 60 -19 5 -29 2 -33 -8z"/>
<path d="M4095 4946 c-79 -11 -80 -11 -92 -46 -7 -19 -12 -51 -12 -71 -1 -38
16 -99 28 -99 16 0 191 202 191 221 0 10 -6 10 -115 -5z"/>
<path d="M4144 4816 c-49 -59 -89 -112 -89 -119 0 -18 92 -46 154 -47 l54 0
-7 128 c-4 70 -11 131 -16 135 -4 5 -48 -39 -96 -97z"/>
<path d="M4280 4898 c1 -40 20 -221 24 -225 6 -6 126 56 125 65 0 4 -26 45
-57 92 -58 87 -92 112 -92 68z"/>
<path d="M4636 4033 c-10 -32 -21 -64 -23 -70 -4 -9 8 -13 41 -13 25 0 46 2
46 4 0 8 -41 136 -44 136 -1 0 -10 -26 -20 -57z"/>
<path d="M5262 4058 l3 -63 44 1 c51 1 71 21 71 71 0 39 -21 53 -80 53 l-41 0
3 -62z"/>
<path d="M4635 3496 c-72 -32 -89 -88 -90 -291 0 -231 32 -305 130 -305 82 0
118 67 130 246 8 111 -6 248 -30 294 -28 54 -89 79 -140 56z"/>
<path d="M5631 3517 c-38 -14 -71 -64 -71 -110 0 -39 28 -95 53 -109 28 -14
93 -14 121 1 78 42 72 183 -9 217 -41 17 -49 17 -94 1z"/>
<path d="M5595 3097 c-106 -106 -1 -271 136 -214 83 34 93 178 17 231 -13 9
-43 16 -71 16 -42 0 -54 -5 -82 -33z"/>
<path d="M6663 3503 c-43 -9 -80 -65 -93 -145 -14 -82 -8 -310 10 -370 33
-112 175 -119 217 -11 26 68 27 398 1 455 -24 54 -79 83 -135 71z"/>
</g>
</svg>
